<svg width="91" height="91" viewBox="0 0 91 91" fill="none" xmlns="http://www.w3.org/2000/svg">
<path fill-rule="evenodd" clip-rule="evenodd" d="M51.6483 76.2299C64.7039 72.8556 74.349 60.9752 74.349 46.8371C74.349 43.624 73.8509 40.5276 72.9277 37.6211L87.0969 23.4207L67.6283 3.90924L53.5613 18.0072C50.5739 17.0191 47.3807 16.4845 44.063 16.4845C29.4211 16.4845 17.206 26.8976 14.3887 40.7375L0.0161043 90.9839L51.6483 76.2299Z" fill="white"/>
<path fill-rule="evenodd" clip-rule="evenodd" d="M2.85935 90.9999L4.0194 89.8399L4.59639 89.675L51.6483 76.2298C64.7039 72.8556 74.349 60.9752 74.349 46.837C74.349 43.624 73.8509 40.5275 72.9277 37.621L87.0969 23.4207L70.4845 6.77168L67.6283 3.90919L64.7721 6.77168L53.5613 18.0071C50.5739 17.0191 47.3807 16.4844 44.063 16.4844C29.4211 16.4844 17.206 26.8975 14.3887 40.7374L1.32616 86.4039L1.16168 86.9789L0 88.1406L0.644916 88.7855L0.0161005 90.9838L2.21493 90.3555L2.85935 90.9999ZM34.6639 53.4767L7.05265 81.0879L18.2765 41.8495L18.3198 41.6982L18.3512 41.544C20.7939 29.5445 31.3874 20.5282 44.063 20.5282C46.9438 20.5282 49.7085 20.992 52.2916 21.8463L54.661 22.63L56.4238 20.8633L67.6283 9.63418L81.3845 23.4207L70.0653 34.7648L68.3301 36.5038L69.0737 38.8451C69.8726 41.3603 70.3053 44.0441 70.3053 46.837C70.3053 59.0923 61.9454 69.3919 50.6364 72.3148L50.5867 72.3276L50.5373 72.3417L9.90752 83.9518L37.5232 56.3361C38.8146 57.1226 40.3314 57.5757 41.954 57.5757C46.6648 57.5757 50.4837 53.7568 50.4837 49.0459C50.4837 44.3351 46.6648 40.5162 41.954 40.5162C37.2431 40.5162 33.4242 44.3351 33.4242 49.0459C33.4242 50.6686 33.8773 52.1854 34.6639 53.4767Z" fill="black"/>
</svg>
