<svg width="140" height="258" viewBox="0 0 140 258" fill="none" xmlns="http://www.w3.org/2000/svg">
<path d="M2.15884 3.72021C0.56856 4.18518 -0.343682 5.85129 0.121287 7.44156C0.586257 9.03184 2.25236 9.94408 3.84264 9.47911L2.15884 3.72021ZM103.919 256.195C104.581 257.713 106.349 258.408 107.868 257.746L132.619 246.959C134.138 246.297 134.833 244.529 134.171 243.01C133.509 241.491 131.741 240.797 130.222 241.459L108.221 251.047L98.6323 229.046C97.9703 227.527 96.2024 226.832 94.6835 227.494C93.1647 228.156 92.47 229.924 93.1319 231.443L103.919 256.195ZM3.84264 9.47911C30.9924 1.54098 78.4322 5.42318 107.826 39.3591C137.078 73.1319 149.458 137.898 103.877 253.899L109.461 256.093C155.328 139.367 143.828 71.7609 112.361 35.4309C81.0352 -0.736057 30.917 -4.68817 2.15884 3.72021L3.84264 9.47911Z" fill="black"/>
</svg>
